<?xml version="1.0" encoding="UTF-8" standalone="no"?>
<svg
   xmlns:dc="http://purl.org/dc/elements/1.1/"
   xmlns:cc="http://creativecommons.org/ns#"
   xmlns:rdf="http://www.w3.org/1999/02/22-rdf-syntax-ns#"
   xmlns:svg="http://www.w3.org/2000/svg"
   xmlns="http://www.w3.org/2000/svg"
   xmlns:sodipodi="http://sodipodi.sourceforge.net/DTD/sodipodi-0.dtd"
   xmlns:inkscape="http://www.inkscape.org/namespaces/inkscape"
   sodipodi:docname="logo.svg"
   inkscape:version="1.0alpha (ecb2914, 2019-02-05)"
   id="svg8"
   version="1.1"
   viewBox="0 0 11.885541 11.885537"
   height="44.921715"
   width="44.92173">
  <defs
     id="defs2" />
  <sodipodi:namedview
     inkscape:showpageshadow="false"
     showborder="true"
     inkscape:pagecheckerboard="false"
     units="px"
     fit-margin-bottom="0"
     fit-margin-right="0"
     fit-margin-left="0"
     fit-margin-top="0"
     inkscape:window-maximized="1"
     inkscape:window-y="805"
     inkscape:window-x="-11"
     inkscape:window-height="2066"
     inkscape:window-width="3840"
     showgrid="false"
     inkscape:document-rotation="0"
     inkscape:current-layer="svg8"
     inkscape:document-units="mm"
     inkscape:cy="31.228658"
     inkscape:cx="24.994385"
     inkscape:zoom="22.627417"
     inkscape:pageshadow="2"
     inkscape:pageopacity="0.0"
     borderopacity="1.0"
     bordercolor="#666666"
     pagecolor="#ffffff"
     id="base" />
  <metadata
     id="metadata5">
    <rdf:RDF>
      <cc:Work
         rdf:about="">
        <dc:title></dc:title>
      </cc:Work>
    </rdf:RDF>
  </metadata>
  <path
     style="font-style:normal;font-weight:normal;font-size:10.5833px;line-height:1.25;font-family:sans-serif;letter-spacing:0px;word-spacing:0px;opacity:1;fill:#000000;fill-opacity:1;stroke:none;stroke-width:0.264583;stop-opacity:1"
     d="m 10.810679,5.441511 q 0.248046,0.134358 0.444416,0.330728 0.201537,0.191202 0.341063,0.423745 0.139526,0.232544 0.211873,0.50126 0.07751,0.268717 0.07751,0.547769 0,0.397907 -0.144693,0.754473 -0.139526,0.351399 -0.39274,0.625283 -0.253214,0.273884 -0.594277,0.449583 -0.341063,0.170532 -0.733803,0.201538 -0.03101,0.397907 -0.206705,0.733803 -0.170532,0.341063 -0.449584,0.594277 -0.273884,0.253214 -0.63045,0.39274 -0.356566,0.144693 -0.749306,0.144693 -0.496092,0 -0.93534,-0.227375 -0.02584,0.206705 -0.124023,0.382404 -0.09819,0.180867 -0.248046,0.310058 -0.144694,0.12919 -0.335896,0.201537 -0.191202,0.07751 -0.397907,0.07751 -0.211873,0 -0.403075,-0.07751 Q 5.353661,11.735677 5.2038,11.60649 5.059106,11.477299 4.960921,11.296432 4.862741,11.120733 4.836898,10.914028 q -0.439248,0.227375 -0.93534,0.227375 -0.397907,0 -0.754474,-0.144693 Q 2.795686,10.857184 2.516634,10.60397 2.24275,10.350756 2.06705,10.009693 1.896519,9.673797 1.865513,9.27589 1.467606,9.24488 1.126542,9.074352 0.790647,8.898653 0.537433,8.624769 0.284219,8.350885 0.139526,7.999486 0,7.64292 0,7.245013 0,6.965961 0.07235,6.697244 0.14987,6.428528 0.289391,6.195984 0.428917,5.963441 0.625287,5.772239 0.826824,5.575869 1.07487,5.441511 0.733807,5.146956 0.55294,4.749049 0.372073,4.351142 0.372073,3.901558 q 0,-0.39274 0.139526,-0.749306 Q 0.656292,2.795686 0.909506,2.521802 1.16272,2.24275 1.498615,2.072218 1.839679,1.896519 2.237586,1.865513 2.268596,1.472773 2.439124,1.13171 2.614823,0.790647 2.888707,0.537433 3.167759,0.284219 3.519158,0.144693 3.875724,0 4.273631,0 4.774891,0 5.208972,0.232543 5.64822,0.465086 5.942775,0.868161 6.237329,0.465086 6.67141,0.232543 7.110658,0 7.611918,0 q 0.39274,0 0.749306,0.144693 0.356566,0.144694 0.63045,0.397908 0.273885,0.248046 0.449584,0.589109 0.175699,0.341063 0.206705,0.733803 0.39274,0.03101 0.733803,0.206705 0.341063,0.175699 0.589109,0.449584 0.253214,0.273884 0.397908,0.63045 0.144693,0.356566 0.144693,0.749306 0,0.449584 -0.180867,0.847491 -0.180867,0.397907 -0.52193,0.692462 z"
     id="path845"
     inkscape:connector-curvature="0" />
  <path
     style="font-style:normal;font-weight:normal;font-size:10.5833px;line-height:1.25;font-family:sans-serif;letter-spacing:0px;word-spacing:0px;opacity:1;fill:#13a10e;fill-opacity:1;stroke:none;stroke-width:0.264583;stop-opacity:1"
     d="m 7.983987,10.402433 q 0.268717,0 0.506428,-0.103353 0.23771,-0.103353 0.41341,-0.279052 Q 9.079524,9.844329 9.182876,9.606618 9.286229,9.368907 9.286229,9.100191 V 8.914156 q 0,-0.155029 0.10852,-0.263549 0.10852,-0.10852 0.263549,-0.10852 h 0.186035 q 0.268716,0 0.506427,-0.09818 0.237711,-0.103353 0.41341,-0.279052 0.1757,-0.175699 0.273885,-0.408242 0.103352,-0.237711 0.103352,-0.511595 0,-0.268717 -0.103352,-0.506428 Q 10.939865,6.500879 10.76417,6.32518 10.588471,6.149481 10.35076,6.046128 10.113049,5.942776 9.844333,5.942776 h -2.04638 q -0.149862,0 -0.263549,-0.108521 -0.108521,-0.113687 -0.108521,-0.263549 0,-0.149861 0.108521,-0.258381 0.113687,-0.113688 0.263549,-0.113688 h 1.674311 q 0.268716,0 0.506427,-0.09819 0.237711,-0.103352 0.41341,-0.279051 0.175699,-0.1757 0.273884,-0.408243 0.103353,-0.237711 0.103353,-0.511595 0,-0.268717 -0.103353,-0.506427 Q 10.567795,3.15742 10.392101,2.98172 10.216402,2.806021 9.978691,2.702669 9.74098,2.599316 9.472264,2.599316 H 9.286229 Q 9.1312,2.599316 9.02268,2.490796 8.91416,2.382276 8.91416,2.227247 V 2.041212 q 0,-0.268716 -0.103353,-0.506427 Q 8.707455,1.297074 8.531756,1.121375 8.356056,0.945676 8.118345,0.847491 7.880635,0.744138 7.611918,0.744138 q -0.273884,0 -0.511595,0.103353 Q 6.86778,0.945681 6.69208,1.121375 6.516381,1.297074 6.413029,1.534785 6.314839,1.772496 6.314839,2.041212 v 2.046381 q 0,0.149861 -0.113688,0.263549 -0.10852,0.10852 -0.258381,0.10852 -0.149862,0 -0.263549,-0.10852 Q 5.5707,4.237454 5.5707,4.087593 V 2.041212 Q 5.5707,1.772496 5.467348,1.539953 5.363995,1.302242 5.188296,1.126542 5.012597,0.950843 4.774886,0.847491 4.542343,0.744138 4.273626,0.744138 q -0.268717,0 -0.506427,0.103353 Q 3.529488,0.945681 3.353788,1.121375 3.178089,1.297074 3.074737,1.534785 2.971384,1.772496 2.971384,2.041212 v 0.186035 q 0,0.155029 -0.10852,0.263549 -0.10852,0.10852 -0.263549,0.10852 H 2.41328 q -0.268716,0 -0.506427,0.103353 -0.237711,0.103352 -0.41341,0.279051 -0.175699,0.1757 -0.279052,0.413411 -0.09819,0.23771 -0.09819,0.506427 0,0.273884 0.09819,0.511595 0.103353,0.232543 0.279052,0.408243 0.175699,0.175699 0.408242,0.279051 0.237711,0.09819 0.511595,0.09819 h 1.674311 q 0.149862,0 0.258382,0.113688 0.10852,0.10852 0.10852,0.258381 0,0.149862 -0.10852,0.263549 -0.10852,0.108521 -0.258382,0.108521 h -2.04638 q -0.268716,0 -0.506427,0.103352 -0.237711,0.103353 -0.41341,0.279052 -0.1757,0.175699 -0.279052,0.41341 -0.09818,0.237711 -0.09818,0.506428 0,0.273884 0.09818,0.511595 0.103352,0.232543 0.279052,0.408242 0.175699,0.175699 0.408242,0.279052 0.237711,0.09818 0.511595,0.09818 h 0.186035 q 0.155029,0 0.263549,0.10852 0.10852,0.10852 0.10852,0.263549 v 0.186035 q 0,0.268716 0.103353,0.506427 0.103352,0.237711 0.279051,0.41341 0.1757,0.175699 0.413411,0.279052 0.23771,0.103353 0.506427,0.103353 0.268717,0 0.506427,-0.103353 0.237711,-0.103353 0.41341,-0.279052 0.1757,-0.175699 0.273885,-0.41341 Q 5.198631,9.368907 5.198631,9.100191 V 7.797949 q 0,-0.19637 0.103353,-0.361734 Q 5.405336,7.265683 5.5707,7.162331 v 3.607003 q 0,0.155029 0.108521,0.263549 0.10852,0.10852 0.263549,0.10852 0.155028,0 0.263548,-0.10852 0.108521,-0.10852 0.108521,-0.263549 V 7.162331 q 0.165364,0.103352 0.268716,0.273884 0.103353,0.165364 0.103353,0.361734 v 1.302242 q 0,0.268716 0.09819,0.506427 0.103352,0.237711 0.279052,0.41341 0.175699,0.175699 0.41341,0.279052 0.23771,0.103353 0.506427,0.103353 z"
     id="path851"
     inkscape:connector-curvature="0" />
  <path
     style="font-style:normal;font-weight:normal;font-size:10.5833px;line-height:1.25;font-family:sans-serif;letter-spacing:0px;word-spacing:0px;opacity:1;fill:#79db75;fill-opacity:1;stroke:none;stroke-width:0.264583;stop-opacity:1"
     d="m 8.91416,2.971385 q 0,0.155029 -0.10852,0.263549 L 7.317363,4.718043 q -0.10852,0.10852 -0.263549,0.10852 -0.149861,0 -0.258381,-0.10852 -0.10852,-0.10852 -0.10852,-0.258381 0,-0.155029 0.10852,-0.263549 L 8.278542,2.707836 q 0.10852,-0.10852 0.263549,-0.10852 0.155029,0 0.263549,0.10852 0.10852,0.10852 0.10852,0.263549 z"
     id="path859"
     inkscape:connector-curvature="0" />
  <path
     style="font-style:normal;font-weight:normal;font-size:10.5833px;line-height:1.25;font-family:sans-serif;letter-spacing:0px;word-spacing:0px;opacity:1;fill:#79db75;fill-opacity:1;stroke:none;stroke-width:0.264583;stop-opacity:1"
     d="m 3.343458,2.599316 q 0.155029,0 0.263549,0.10852 l 1.483109,1.488277 q 0.10852,0.10852 0.10852,0.263549 0,0.149861 -0.113688,0.258381 -0.10852,0.10852 -0.258381,0.10852 -0.149861,0 -0.258381,-0.10852 L 3.079909,3.234934 q -0.10852,-0.10852 -0.10852,-0.263549 0,-0.155029 0.10852,-0.263549 0.10852,-0.10852 0.263549,-0.10852 z"
     id="path857"
     inkscape:connector-curvature="0" />
  <path
     style="font-style:normal;font-weight:normal;font-size:10.5833px;line-height:1.25;font-family:sans-serif;letter-spacing:0px;word-spacing:0px;opacity:1;fill:#79db75;fill-opacity:1;stroke:none;stroke-width:0.264583;stop-opacity:1"
     d="m 7.053814,5.942771 q 0.155029,0 0.263549,0.10852 l 1.860346,1.855178 q 0.10852,0.10852 0.10852,0.263549 0,0.149861 -0.113688,0.263549 -0.10852,0.10852 -0.258381,0.10852 -0.155029,0 -0.263549,-0.10852 L 6.795433,6.578389 q -0.10852,-0.10852 -0.10852,-0.263549 0,-0.149861 0.10852,-0.258382 0.10852,-0.113687 0.258381,-0.113687 z"
     id="path855"
     inkscape:connector-curvature="0" />
  <path
     style="font-style:normal;font-weight:normal;font-size:10.5833px;line-height:1.25;font-family:sans-serif;letter-spacing:0px;word-spacing:0px;opacity:1;fill:#79db75;fill-opacity:1;stroke:none;stroke-width:0.264583;stop-opacity:1"
     d="m 2.59932,8.170018 q 0,-0.155029 0.10852,-0.263549 L 4.568186,6.051291 q 0.10852,-0.10852 0.258381,-0.10852 0.149861,0 0.258381,0.113687 0.113688,0.108521 0.113688,0.258382 0,0.155029 -0.10852,0.263549 L 3.234938,8.433567 q -0.10852,0.10852 -0.263549,0.10852 -0.149861,0 -0.263549,-0.10852 Q 2.59932,8.319879 2.59932,8.170018 Z"
     id="path853"
     inkscape:connector-curvature="0" />
</svg>
